<svg xmlns="http://www.w3.org/2000/svg" width="93.424" height="13.999" viewBox="0 0 93.424 13.999">
  <g id="Grupo_12" data-name="Grupo 12" transform="translate(-152.098 -156.693)">
    <path id="Trazado_17" data-name="Trazado 17" d="M476.342,167.482a.125.125,0,0,1,.123.093c.073.385.333,1.269,1.01,1.269s.958-.312.958-.895c0-.864-1.072-1.155-1.769-1.155a.51.51,0,0,0-.073,0h0c-1.027.132-1.668.956-2.586,2.252l-.865,1.207a12,12,0,0,1-1.3-3.8,14.514,14.514,0,0,0,2.648-.829c1.207-.54,2.45-1.207,2.45-2.721,0-1.459-1.261-2.2-2.613-2.2-2.522,0-4.018,2.036-4.018,4.432a8.4,8.4,0,0,0,.054.991c-1.531.415-4.378,1.586-4.378,4.414a3.072,3.072,0,0,0,3.117,3.315,4.555,4.555,0,0,0,3.352-1.694,2.973,2.973,0,0,0,2.54,1.694,3.065,3.065,0,0,0,2.487-1.477s-.392-.382-.4-.375c-.422.46-.748.879-1.475.879s-1.549-.631-2.126-1.982l1.225-1.694C475.225,168.529,476,167.484,476.342,167.482Zm-2.2-6.065a1.378,1.378,0,0,1,1.513,1.46c0,1.82-2.631,2.991-3.928,2.991a5.37,5.37,0,0,1-.144-1.279C471.586,163.129,472.486,161.417,474.145,161.417Zm-4.343,11.55a2.247,2.247,0,0,1-2.108-2.432,3.574,3.574,0,0,1,2.739-3.73,19.288,19.288,0,0,0,1.658,4.883A2.843,2.843,0,0,1,469.8,172.967Z" transform="translate(-253.811 -3.247)"/>
    <path id="Trazado_18" data-name="Trazado 18" d="M157.936,161.119c3.189,0,5.838,2.612,5.838,6.576s-2.649,6.577-5.838,6.577S152.1,171.66,152.1,167.7,154.747,161.119,157.936,161.119ZM156.08,167.7c0,1.964.09,5.226,1.856,5.226s1.856-3.261,1.856-5.226-.09-5.225-1.856-5.225S156.08,165.732,156.08,167.7Z" transform="translate(0 -3.579)" opacity="0.99"/>
    <g id="Grupo_10" data-name="Grupo 10" transform="translate(164.374 156.693)">
      <circle id="Elipse_1" data-name="Elipse 1" cx="1.874" cy="1.874" r="1.874" transform="translate(15.789 0.857) rotate(-0.345)"/>
      <path id="Trazado_19" data-name="Trazado 19" d="M245.768,169.108v-4.919a2.5,2.5,0,0,0-2.774-2.721,3.674,3.674,0,0,0-2.595,1.243l-.27-1.243-3.73.973v1.045c.414.018.847.162.847.5v5.118l-.846.126-.846-.126v-7.64l-4.126,1.117v1.045c.415.018.847.162.847.5v4.974l-.847.126-.846-.126V156.693l-4.126.883v1.045c.415.018.847.162.847.5v9.982l-.846.126-.846-.126v-4.919a2.505,2.505,0,0,0-2.775-2.721,3.674,3.674,0,0,0-2.595,1.243l-.27-1.243-3.73.973v1.045c.414.018.847.162.847.5v5.118l-.847.126v1.189h4.684v-1.189l-.559-.126v-5.081a.866.866,0,0,1,.883-.757c.829,0,1.081.432,1.081,1.207v4.631l-.559.126v1.189h19.312v-1.189l-.559-.126v-5.081a.865.865,0,0,1,.883-.757c.829,0,1.081.432,1.081,1.207v4.631l-.559.126v1.189h4.685v-1.189Z" transform="translate(-216.24 -156.693)"/>
    </g>
    <path id="Trazado_20" data-name="Trazado 20" d="M378.719,186.958a1.938,1.938,0,0,0,1.766,1.91,2.1,2.1,0,0,0,1.784-1.189l.883,1.045a4.444,4.444,0,0,1-3.892,2.126c-2.739,0-4.036-2.072-4.036-4.342,0-2.9,1.676-4.865,4.2-4.865,2.379,0,3.64,1.928,3.766,4.108Zm-.216-1.316.792-.216c.469-.126.793-.288.793-.973,0-.576-.162-1.621-.847-1.621-.739,0-.739,1.243-.739,1.91Z" transform="translate(-180.422 -20.175)"/>
    <path id="Trazado_21" data-name="Trazado 21" d="M425.36,183.337a1.155,1.155,0,0,1-1.3,1.1,1.831,1.831,0,0,1-1.535-1.738.176.176,0,0,0-.224-.15,1.282,1.282,0,0,0-.907,1.2c0,1.369,4.324.4,4.324,3.856,0,2.594-2.18,3.243-3.982,3.243-1.118,0-3.3-.149-3.224-1.906a1.335,1.335,0,0,1,1.332-1.3c1.171,0,1.423,1.027,1.621,1.784.094.363.487.354.649.337.594-.063,1.171-.409,1.171-1.021,0-1.478-4.324-.595-4.324-3.964,0-2.559,2.18-3.135,3.982-3.135C424.333,181.643,425.36,182.129,425.36,183.337Z" transform="translate(-215.427 -20.175)"/>
    <g id="Grupo_11" data-name="Grupo 11" transform="translate(226.175 161.468)">
      <path id="Trazado_22" data-name="Trazado 22" d="M547.279,188.688a3.857,3.857,0,0,1-3.747,2.162c-2.757,0-4.378-1.711-4.378-4.468a4.688,4.688,0,0,1,4.792-4.738c1.207,0,3.064.5,3.064,2,0,1.009-.5,1.549-1.658,1.549-1.171,0-1.622-1.531-1.748-2.2a.216.216,0,0,0-.216-.162c-.523,0-.775,1.387-.775,2.27,0,1.423.162,3.946,2.072,3.946.793,0,1.225-.666,1.676-1.261Z" transform="translate(-539.153 -181.643)"/>
      <path id="Trazado_23" data-name="Trazado 23" d="M592.142,186.255a4.488,4.488,0,1,1-4.486-4.612A4.323,4.323,0,0,1,592.142,186.255Zm-5.513,0c0,1.91,0,3.406,1.027,3.406s1.027-1.5,1.027-3.406c0-1.333,0-3.423-1.027-3.423S586.628,184.922,586.628,186.255Z" transform="translate(-574.745 -181.643)"/>
      <path id="Trazado_24" data-name="Trazado 24" d="M629.692,219.854a1.173,1.173,0,1,1,1.117-1.171A1.1,1.1,0,0,1,629.692,219.854Z" transform="translate(-611.461 -210.646)"/>
    </g>
  </g>
</svg>
