<svg xmlns="http://www.w3.org/2000/svg" width="100" height="28.263" viewBox="0 0 100 28.263">
  <path id="Trazado_26" data-name="Trazado 26" d="M-233.552-69.924v26.7h-5.488l-13.446-25.363v24.618h2.156v.745h-5.37v-.745h2.156V-69.924H-255.7v-.745h10.819l10.27,19.679V-69.924h-2.156v-.745h5.37v.745Zm22.383,14.583v-2.9q0-7.174-.706-9.055a4,4,0,0,0-2.234-2.666,5.633,5.633,0,0,0-2-.314,5.8,5.8,0,0,0-2.019.314,2.916,2.916,0,0,0-1.392,1.1,7.71,7.71,0,0,0-.882,1.646,10.731,10.731,0,0,0-.529,2.43q-.235,2.274-.235,6.7v2.822a42.643,42.643,0,0,0,.372,6.8,8.6,8.6,0,0,0,.921,2.881,4.138,4.138,0,0,0,3.763,1.921,3.819,3.819,0,0,0,4.018-2.607Q-211.168-48.873-211.168-55.341Zm-5.018,12.5q-6.546,0-9.78-3.548t-3.234-10.27q0-6.723,3.469-10.584t9.82-3.861q6.35,0,9.584,3.665t3.234,10.408q0,6.742-3.273,10.466T-216.186-42.837Zm29.4-7.487,6.821-19.6h-3.058v-.745h6v.745h-1.842l-9.447,27.087h-3.293l-10-27.087h-1.8v-.745h12.819v.745h-2.783Zm21.051,6.35-2.862-8.467h-7.762l-3.018,8.467h2.94v.745h-6v-.745h1.842l10-26.931h3.214l9.878,26.931h1.8v.745h-12.818v-.745Zm-6.586-19.6-3.685,10.27h7.1Z" transform="translate(255.7 71.1)"/>
</svg>
