<svg xmlns="http://www.w3.org/2000/svg" width="15.75" height="15.75" viewBox="0 0 15.75 15.75">
  <path id="Trazado_31" data-name="Trazado 31" d="M13.391-12.336a7.746,7.746,0,0,0-5.52-2.289,7.814,7.814,0,0,0-7.8,7.8,7.813,7.813,0,0,0,1.041,3.9L0,1.125,4.138.039a7.781,7.781,0,0,0,3.73.949h0a7.88,7.88,0,0,0,7.878-7.8A7.835,7.835,0,0,0,13.391-12.336ZM7.871-.327a6.475,6.475,0,0,1-3.3-.9l-.236-.141L1.877-.728l.654-2.394-.155-.246A6.466,6.466,0,0,1,1.385-6.82a6.5,6.5,0,0,1,6.49-6.486,6.43,6.43,0,0,1,4.584,1.9,6.513,6.513,0,0,1,1.972,4.588A6.559,6.559,0,0,1,7.871-.327Zm3.558-4.859c-.193-.1-1.153-.57-1.332-.633s-.309-.1-.439.1-.5.633-.619.766-.229.148-.422.049a5.308,5.308,0,0,1-2.654-2.32c-.2-.345.2-.32.573-1.065a.361.361,0,0,0-.018-.341c-.049-.1-.439-1.058-.6-1.448s-.32-.327-.439-.334-.243-.007-.373-.007a.722.722,0,0,0-.52.243A2.191,2.191,0,0,0,3.9-8.55,3.821,3.821,0,0,0,4.7-6.532,8.715,8.715,0,0,0,8.03-3.586a3.816,3.816,0,0,0,2.341.489,2,2,0,0,0,1.315-.928,1.631,1.631,0,0,0,.112-.928C11.753-5.041,11.623-5.091,11.429-5.186Z" transform="translate(0 14.625)"/>
</svg>
