<svg xmlns="http://www.w3.org/2000/svg" width="19.2" height="13.5" viewBox="0 0 19.2 13.5">
  <path id="Trazado_30" data-name="Trazado 30" d="M19.324-11.388a2.412,2.412,0,0,0-1.7-1.708c-1.5-.4-7.5-.4-7.5-.4s-6,0-7.5.4a2.412,2.412,0,0,0-1.7,1.708,25.308,25.308,0,0,0-.4,4.651,25.308,25.308,0,0,0,.4,4.651A2.377,2.377,0,0,0,2.624-.4c1.5.4,7.5.4,7.5.4s6,0,7.5-.4a2.377,2.377,0,0,0,1.7-1.681,25.308,25.308,0,0,0,.4-4.651A25.308,25.308,0,0,0,19.324-11.388ZM8.161-3.882v-5.71l5.018,2.855Z" transform="translate(-0.525 13.5)"/>
</svg>
